999
DXF from OpenSCAD
  0
SECTION
  2
HEADER
  9
$ACADVER
  1
AC1006
  9
$INSBASE
 10
0.0
 20
0.0
 30
0.0
  9
$EXTMIN
 10
-7.45
 20
-2.035
  9
$EXTMAX
 10
7.55
 20
3.515
  9
$LINMIN
 10
-7.45
 20
-2.035
  9
$LINMAX
 10
7.55
 20
3.515
  0
ENDSEC
  0
SECTION
  2
TABLES
  0
TABLE
  2
LTYPE
 70
1
  0
LTYPE
  2
CONTINUOUS
 70
64
  3
Solid line
 72
65
 73
0
 40
0.000000
  0
ENDTAB
  0
TABLE
  2
LAYER
 70
6
  0
LAYER
  2
0
 70
64
 62
7
  6
CONTINUOUS
  0
ENDTAB
  0
TABLE
  2
STYLE
 70
0
  0
ENDTAB
  0
ENDSEC
  0
SECTION
  2
BLOCKS
  0
ENDSEC
  0
SECTION
  2
ENTITIES
  0
LWPOLYLINE
100
AcDbEntity
  8
0
100
AcDbPolyline
 90
76
 70
1
 10
-4.99484
 20
3.5093
 10
-5.06918
 20
3.49232
 10
-5.14017
 20
3.46445
 10
-5.2062
 20
3.4263
 10
-5.26581
 20
3.37873
 10
-6.36497
 20
2.35811
 10
-6.57889
 20
2.18941
 10
-6.81711
 20
2.05723
 10
-7.07346
 20
1.965
 10
-7.08446
 20
1.96105
 10
-7.15151
 20
1.93684
 10
-7.16173
 20
1.93118
 10
-7.22396
 20
1.8964
 10
-7.23315
 20
1.88918
 10
-7.2889
 20
1.84475
 10
-7.29681
 20
1.83615
 10
-7.3446
 20
1.78325
 10
-7.35103
 20
1.7735
 10
-7.38959
 20
1.71353
 10
-7.39438
 20
1.70287
 10
-7.42267
 20
1.63744
 10
-7.4257
 20
1.62615
 10
-7.44299
 20
1.557
 10
-7.44366
 20
1.55256
 10
-7.44406
 20
1.54818
 10
-7.44987
 20
1.47711
 10
-7.45
 20
1.47277
 10
-7.45
 20
-1.525
 10
-7.44225
 20
-1.61356
 10
-7.41924
 20
-1.69943
 10
-7.38167
 20
-1.78
 10
-7.33068
 20
-1.85282
 10
-7.26782
 20
-1.91568
 10
-7.195
 20
-1.96667
 10
-7.11443
 20
-2.00424
 10
-7.02856
 20
-2.02725
 10
-6.94
 20
-2.035
 10
7.04
 20
-2.035
 10
7.12856
 20
-2.02725
 10
7.21443
 20
-2.00424
 10
7.295
 20
-1.96667
 10
7.36782
 20
-1.91568
 10
7.43068
 20
-1.85282
 10
7.48167
 20
-1.78
 10
7.51924
 20
-1.69943
 10
7.54225
 20
-1.61356
 10
7.55
 20
-1.525
 10
7.55
 20
1.47277
 10
7.54987
 20
1.47711
 10
7.54389
 20
1.54919
 10
7.54349
 20
1.55357
 10
7.54282
 20
1.55801
 10
7.52504
 20
1.6281
 10
7.52195
 20
1.63957
 10
7.49286
 20
1.70577
 10
7.48794
 20
1.71658
 10
7.44834
 20
1.77708
 10
7.44173
 20
1.78696
 10
7.39269
 20
1.8401
 10
7.38456
 20
1.84877
 10
7.32744
 20
1.8931
 10
7.31801
 20
1.90033
 10
7.25436
 20
1.93464
 10
7.24388
 20
1.94024
 10
7.17545
 20
1.96359
 10
7.1642
 20
1.96742
 10
6.89854
 20
2.05813
 10
6.65153
 20
2.19153
 10
6.42999
 20
2.36393
 10
5.32673
 20
3.38012
 10
5.26727
 20
3.42722
 10
5.20148
 20
3.46498
 10
5.13082
 20
3.49256
 10
5.05685
 20
3.50936
 10
4.98121
 20
3.515
 10
-4.91879
 20
3.515
  0
ENDSEC
  0
EOF
