999
DXF from OpenSCAD
  0
SECTION
  2
HEADER
  9
$ACADVER
  1
AC1006
  9
$INSBASE
 10
0.0
 20
0.0
 30
0.0
  9
$EXTMIN
 10
-3.7
 20
-1.3
  9
$EXTMAX
 10
3.7
 20
1.05
  9
$LINMIN
 10
-3.7
 20
-1.3
  9
$LINMAX
 10
3.7
 20
1.05
  0
ENDSEC
  0
SECTION
  2
TABLES
  0
TABLE
  2
LTYPE
 70
1
  0
LTYPE
  2
CONTINUOUS
 70
64
  3
Solid line
 72
65
 73
0
 40
0.000000
  0
ENDTAB
  0
TABLE
  2
LAYER
 70
6
  0
LAYER
  2
0
 70
64
 62
7
  6
CONTINUOUS
  0
ENDTAB
  0
TABLE
  2
STYLE
 70
0
  0
ENDTAB
  0
ENDSEC
  0
SECTION
  2
BLOCKS
  0
ENDSEC
  0
SECTION
  2
ENTITIES
  0
LWPOLYLINE
100
AcDbEntity
  8
0
100
AcDbPolyline
 90
44
 70
1
 10
-3.7
 20
-1.04
 10
-3.69605
 20
-1.08515
 10
-3.68432
 20
-1.12892
 10
-3.66517
 20
-1.17
 10
-3.63917
 20
-1.20712
 10
-3.60712
 20
-1.23917
 10
-3.57
 20
-1.26517
 10
-3.52892
 20
-1.28432
 10
-3.48515
 20
-1.29605
 10
-3.44
 20
-1.3
 10
3.44
 20
-1.3
 10
3.48515
 20
-1.29605
 10
3.52892
 20
-1.28432
 10
3.57
 20
-1.26517
 10
3.60712
 20
-1.23917
 10
3.63917
 20
-1.20712
 10
3.66517
 20
-1.17
 10
3.68432
 20
-1.12892
 10
3.69605
 20
-1.08515
 10
3.7
 20
-1.04
 10
3.7
 20
-0.0526953
 10
3.6968
 20
-0.012022
 10
3.68727
 20
0.027648
 10
3.67166
 20
0.0653419
 10
3.65034
 20
0.100128
 10
3.62385
 20
0.131152
 10
2.78115
 20
0.973847
 10
2.75013
 20
1.00034
 10
2.71534
 20
1.02166
 10
2.67765
 20
1.03727
 10
2.63798
 20
1.0468
 10
2.5973
 20
1.05
 10
-2.5973
 20
1.05
 10
-2.63798
 20
1.0468
 10
-2.67765
 20
1.03727
 10
-2.71534
 20
1.02166
 10
-2.75013
 20
1.00034
 10
-2.78115
 20
0.973847
 10
-3.62385
 20
0.131152
 10
-3.65034
 20
0.100128
 10
-3.67166
 20
0.0653419
 10
-3.68727
 20
0.027648
 10
-3.6968
 20
-0.012022
 10
-3.7
 20
-0.0526953
  0
ENDSEC
  0
EOF
