999
DXF from OpenSCAD
  0
SECTION
  2
HEADER
  9
$ACADVER
  1
AC1006
  9
$INSBASE
 10
0.0
 20
0.0
 30
0.0
  9
$EXTMIN
 10
-3.85
 20
-2
  9
$EXTMAX
 10
3.85
 20
1.9
  9
$LINMIN
 10
-3.85
 20
-2
  9
$LINMAX
 10
3.85
 20
1.9
  0
ENDSEC
  0
SECTION
  2
TABLES
  0
TABLE
  2
LTYPE
 70
1
  0
LTYPE
  2
CONTINUOUS
 70
64
  3
Solid line
 72
65
 73
0
 40
0.000000
  0
ENDTAB
  0
TABLE
  2
LAYER
 70
6
  0
LAYER
  2
0
 70
64
 62
7
  6
CONTINUOUS
  0
ENDTAB
  0
TABLE
  2
STYLE
 70
0
  0
ENDTAB
  0
ENDSEC
  0
SECTION
  2
BLOCKS
  0
ENDSEC
  0
SECTION
  2
ENTITIES
  0
LWPOLYLINE
100
AcDbEntity
  8
0
100
AcDbPolyline
 90
62
 70
1
 10
2.92182
 20
-1.9924
 10
2.93156
 20
-1.98979
 10
3.00601
 20
-1.96985
 10
3.085
 20
-1.93301
 10
3.15639
 20
-1.88302
 10
3.21802
 20
-1.82139
 10
3.26801
 20
-1.75
 10
3.30485
 20
-1.67101
 10
3.3274
 20
-1.58682
 10
3.335
 20
-1.5
 10
3.335
 20
-0.753757
 10
3.33608
 20
-0.739102
 10
3.33929
 20
-0.724764
 10
3.34458
 20
-0.711052
 10
3.35181
 20
-0.698261
 10
3.76594
 20
-0.0774755
 10
3.80211
 20
-0.013525
 10
3.82852
 20
0.0550346
 10
3.8446
 20
0.126726
 10
3.85
 20
0.2
 10
3.85
 20
1.4
 10
3.8424
 20
1.48682
 10
3.81985
 20
1.57101
 10
3.78301
 20
1.65
 10
3.73302
 20
1.72139
 10
3.67139
 20
1.78302
 10
3.6
 20
1.83301
 10
3.52101
 20
1.86985
 10
3.43682
 20
1.8924
 10
3.35
 20
1.9
 10
-3.35
 20
1.9
 10
-3.43682
 20
1.8924
 10
-3.52101
 20
1.86985
 10
-3.6
 20
1.83301
 10
-3.67139
 20
1.78302
 10
-3.73302
 20
1.72139
 10
-3.78301
 20
1.65
 10
-3.81985
 20
1.57101
 10
-3.8424
 20
1.48682
 10
-3.85
 20
1.4
 10
-3.85
 20
0.2
 10
-3.8446
 20
0.126726
 10
-3.82852
 20
0.0550346
 10
-3.80211
 20
-0.013525
 10
-3.76594
 20
-0.0774755
 10
-3.35181
 20
-0.698261
 10
-3.34458
 20
-0.711052
 10
-3.33929
 20
-0.724764
 10
-3.33608
 20
-0.739102
 10
-3.335
 20
-0.753757
 10
-3.335
 20
-1.5
 10
-3.3274
 20
-1.58682
 10
-3.30485
 20
-1.67101
 10
-3.26801
 20
-1.75
 10
-3.21802
 20
-1.82139
 10
-3.15639
 20
-1.88302
 10
-3.085
 20
-1.93301
 10
-3.00601
 20
-1.96985
 10
-2.93156
 20
-1.98979
 10
-2.92182
 20
-1.9924
 10
-2.835
 20
-2
 10
2.835
 20
-2
  0
ENDSEC
  0
EOF
