999
DXF from OpenSCAD
  0
SECTION
  2
HEADER
  9
$ACADVER
  1
AC1006
  9
$INSBASE
 10
0.0
 20
0.0
 30
0.0
  9
$EXTMIN
 10
-23.2924
 20
-8.25
  9
$EXTMAX
 10
23.8
 20
8.25
  9
$LINMIN
 10
-23.2924
 20
-8.25
  9
$LINMAX
 10
23.8
 20
8.25
  0
ENDSEC
  0
SECTION
  2
TABLES
  0
TABLE
  2
LTYPE
 70
1
  0
LTYPE
  2
CONTINUOUS
 70
64
  3
Solid line
 72
65
 73
0
 40
0.000000
  0
ENDTAB
  0
TABLE
  2
LAYER
 70
6
  0
LAYER
  2
0
 70
64
 62
7
  6
CONTINUOUS
  0
ENDTAB
  0
TABLE
  2
STYLE
 70
0
  0
ENDTAB
  0
ENDSEC
  0
SECTION
  2
BLOCKS
  0
ENDSEC
  0
SECTION
  2
ENTITIES
  0
LWPOLYLINE
100
AcDbEntity
  8
0
100
AcDbPolyline
 90
44
 70
1
 10
21.3209
 20
-8.20442
 10
21.8261
 20
-8.06908
 10
22.3
 20
-7.84808
 10
22.7284
 20
-7.54813
 10
23.0981
 20
-7.17836
 10
23.3981
 20
-6.75
 10
23.6191
 20
-6.27606
 10
23.7544
 20
-5.77094
 10
23.8
 20
-5.25
 10
23.8
 20
5.25
 10
23.7544
 20
5.77094
 10
23.6191
 20
6.27606
 10
23.3981
 20
6.75
 10
23.0981
 20
7.17836
 10
22.7284
 20
7.54813
 10
22.3
 20
7.84808
 10
21.8261
 20
8.06908
 10
21.3209
 20
8.20442
 10
20.8
 20
8.25
 10
-17.4865
 20
8.25
 10
-17.9752
 20
8.20993
 10
-18.4509
 20
8.09079
 10
-18.9007
 20
7.89576
 10
-19.3128
 20
7.63006
 10
-19.6761
 20
7.30078
 10
-19.9809
 20
6.91671
 10
-20.2191
 20
6.48812
 10
-20.3843
 20
6.02646
 10
-20.5111
 20
5.55331
 10
-22.7129
 20
-2.66408
 10
-23.1644
 20
-4.34886
 10
-23.1978
 20
-4.47354
 10
-23.2864
 20
-4.96483
 10
-23.2924
 20
-5.46402
 10
-23.2154
 20
-5.95728
 10
-23.0578
 20
-6.43095
 10
-22.8238
 20
-6.87192
 10
-22.5199
 20
-7.26798
 10
-22.1545
 20
-7.60816
 10
-21.7377
 20
-7.88304
 10
-21.2812
 20
-8.085
 10
-20.7975
 20
-8.20846
 10
-20.3
 20
-8.25
 10
20.8
 20
-8.25
  0
ENDSEC
  0
EOF
