999
DXF from OpenSCAD
  0
SECTION
  2
HEADER
  9
$ACADVER
  1
AC1006
  9
$INSBASE
 10
0.0
 20
0.0
 30
0.0
  9
$EXTMIN
 10
-4.49
 20
-1.58
  9
$EXTMAX
 10
4.45
 20
1.58
  9
$LINMIN
 10
-4.49
 20
-1.58
  9
$LINMAX
 10
4.45
 20
1.58
  0
ENDSEC
  0
SECTION
  2
TABLES
  0
TABLE
  2
LTYPE
 70
1
  0
LTYPE
  2
CONTINUOUS
 70
64
  3
Solid line
 72
65
 73
0
 40
0.000000
  0
ENDTAB
  0
TABLE
  2
LAYER
 70
6
  0
LAYER
  2
0
 70
64
 62
7
  6
CONTINUOUS
  0
ENDTAB
  0
TABLE
  2
STYLE
 70
0
  0
ENDTAB
  0
ENDSEC
  0
SECTION
  2
BLOCKS
  0
ENDSEC
  0
SECTION
  2
ENTITIES
  0
LWPOLYLINE
100
AcDbEntity
  8
0
100
AcDbPolyline
 90
90
 70
1
 10
-4.49
 20
-0.299999
 10
-4.48953
 20
-0.3058
 10
-4.47063
 20
-0.521842
 10
-4.46922
 20
-0.52749
 10
-4.41309
 20
-0.736967
 10
-4.41079
 20
-0.742313
 10
-4.31914
 20
-0.938862
 10
-4.31601
 20
-0.943766
 10
-4.19162
 20
-1.12141
 10
-4.18773
 20
-1.12575
 10
-4.03439
 20
-1.27909
 10
-4.02985
 20
-1.28274
 10
-3.8522
 20
-1.40713
 10
-3.84714
 20
-1.41
 10
-3.65059
 20
-1.50165
 10
-3.64513
 20
-1.50366
 10
-3.43565
 20
-1.55979
 10
-3.42993
 20
-1.56089
 10
-3.42919
 20
-1.56096
 10
-3.21315
 20
-1.57986
 10
-3.21244
 20
-1.57992
 10
-3.21175
 20
-1.57995
 10
-3.21111
 20
-1.57998
 10
-3.21052
 20
-1.58
 10
-3.21
 20
-1.58
 10
3.17
 20
-1.58
 10
3.17052
 20
-1.58
 10
3.17111
 20
-1.57998
 10
3.17175
 20
-1.57995
 10
3.17244
 20
-1.57992
 10
3.17315
 20
-1.57986
 10
3.38919
 20
-1.56096
 10
3.38993
 20
-1.56089
 10
3.39565
 20
-1.55979
 10
3.60513
 20
-1.50366
 10
3.61059
 20
-1.50165
 10
3.80714
 20
-1.41
 10
3.8122
 20
-1.40713
 10
3.98985
 20
-1.28274
 10
3.99438
 20
-1.27909
 10
4.14773
 20
-1.12575
 10
4.15162
 20
-1.12141
 10
4.27601
 20
-0.943766
 10
4.27914
 20
-0.938862
 10
4.37079
 20
-0.742313
 10
4.37309
 20
-0.736967
 10
4.42922
 20
-0.52749
 10
4.43063
 20
-0.521842
 10
4.44953
 20
-0.3058
 10
4.45
 20
-0.299999
 10
4.45
 20
0.299999
 10
4.44999
 20
0.300897
 10
4.43112
 20
0.516517
 10
4.43041
 20
0.523053
 10
4.37439
 20
0.732122
 10
4.37256
 20
0.738439
 10
4.28109
 20
0.934604
 10
4.27821
 20
0.940515
 10
4.15406
 20
1.11782
 10
4.15021
 20
1.12315
 10
3.99716
 20
1.2762
 10
3.99246
 20
1.28079
 10
3.81516
 20
1.40494
 10
3.80974
 20
1.40866
 10
3.61358
 20
1.50013
 10
3.6076
 20
1.50287
 10
3.39853
 20
1.55889
 10
3.39217
 20
1.56057
 10
3.17655
 20
1.57944
 10
3.17
 20
1.58
 10
-3.21
 20
1.58
 10
-3.21655
 20
1.57944
 10
-3.43217
 20
1.56057
 10
-3.43853
 20
1.55889
 10
-3.6476
 20
1.50287
 10
-3.65358
 20
1.50013
 10
-3.84974
 20
1.40866
 10
-3.85516
 20
1.40494
 10
-4.03246
 20
1.28079
 10
-4.03717
 20
1.2762
 10
-4.19021
 20
1.12315
 10
-4.19406
 20
1.11782
 10
-4.31821
 20
0.940515
 10
-4.32109
 20
0.934604
 10
-4.41256
 20
0.738439
 10
-4.41439
 20
0.732122
 10
-4.47041
 20
0.523053
 10
-4.47112
 20
0.516517
 10
-4.48999
 20
0.300897
 10
-4.49
 20
0.299999
  0
ENDSEC
  0
EOF
