999
DXF from OpenSCAD
  0
SECTION
  2
HEADER
  9
$ACADVER
  1
AC1006
  9
$INSBASE
 10
0.0
 20
0.0
 30
0.0
  9
$EXTMIN
 10
-13.8
 20
-4.6
  9
$EXTMAX
 10
13.8
 20
4.6
  9
$LINMIN
 10
-13.8
 20
-4.6
  9
$LINMAX
 10
13.8
 20
4.6
  0
ENDSEC
  0
SECTION
  2
TABLES
  0
TABLE
  2
LTYPE
 70
1
  0
LTYPE
  2
CONTINUOUS
 70
64
  3
Solid line
 72
65
 73
0
 40
0.000000
  0
ENDTAB
  0
TABLE
  2
LAYER
 70
6
  0
LAYER
  2
0
 70
64
 62
7
  6
CONTINUOUS
  0
ENDTAB
  0
TABLE
  2
STYLE
 70
0
  0
ENDTAB
  0
ENDSEC
  0
SECTION
  2
BLOCKS
  0
ENDSEC
  0
SECTION
  2
ENTITIES
  0
LWPOLYLINE
100
AcDbEntity
  8
0
100
AcDbPolyline
 90
40
 70
1
 10
6.94564
 20
-4.6
 10
7.28414
 20
-4.57038
 10
7.61236
 20
-4.48244
 10
7.92032
 20
-4.33883
 10
8.19866
 20
-4.14394
 10
8.43894
 20
-3.90366
 10
8.63383
 20
-3.62532
 10
8.77744
 20
-3.31736
 10
8.86539
 20
-2.98914
 10
8.895
 20
-2.65064
 10
8.86539
 20
-2.31214
 10
7.93063
 20
2.98914
 10
7.84268
 20
3.31736
 10
7.69908
 20
3.62532
 10
7.50418
 20
3.90366
 10
7.26391
 20
4.14394
 10
6.98556
 20
4.33883
 10
6.6776
 20
4.48244
 10
6.34938
 20
4.57038
 10
6.01088
 20
4.6
 10
-6.02088
 20
4.6
 10
-6.35938
 20
4.57038
 10
-6.6876
 20
4.48244
 10
-6.99556
 20
4.33883
 10
-7.27391
 20
4.14394
 10
-7.51418
 20
3.90366
 10
-7.70908
 20
3.62532
 10
-7.85268
 20
3.31736
 10
-7.94063
 20
2.98914
 10
-8.87539
 20
-2.31214
 10
-8.905
 20
-2.65064
 10
-8.87539
 20
-2.98914
 10
-8.78744
 20
-3.31736
 10
-8.64384
 20
-3.62532
 10
-8.44894
 20
-3.90366
 10
-8.20866
 20
-4.14394
 10
-7.93032
 20
-4.33883
 10
-7.62236
 20
-4.48244
 10
-7.29414
 20
-4.57038
 10
-6.95564
 20
-4.6
  0
LWPOLYLINE
100
AcDbEntity
  8
0
100
AcDbPolyline
 90
100
 70
1
 10
-12.4184
 20
-1.29743
 10
-12.3371
 20
-1.28975
 10
-12.2564
 20
-1.27697
 10
-12.1767
 20
-1.25916
 10
-12.0983
 20
-1.23637
 10
-12.0214
 20
-1.20871
 10
-11.9465
 20
-1.17628
 10
-11.8737
 20
-1.1392
 10
-11.8034
 20
-1.09763
 10
-11.7359
 20
-1.05172
 10
-11.6713
 20
-1.00167
 10
-11.6101
 20
-0.947659
 10
-11.5523
 20
-0.889911
 10
-11.4983
 20
-0.828651
 10
-11.4483
 20
-0.764121
 10
-11.4024
 20
-0.696575
 10
-11.3608
 20
-0.62628
 10
-11.3237
 20
-0.553513
 10
-11.2913
 20
-0.478562
 10
-11.2636
 20
-0.401722
 10
-11.2408
 20
-0.323297
 10
-11.223
 20
-0.243596
 10
-11.2103
 20
-0.162933
 10
-11.2026
 20
-0.0816277
 10
-11.2
 20
0
 10
-11.2026
 20
0.0816277
 10
-11.2103
 20
0.162933
 10
-11.223
 20
0.243596
 10
-11.2408
 20
0.323297
 10
-11.2636
 20
0.401722
 10
-11.2913
 20
0.478562
 10
-11.3237
 20
0.553513
 10
-11.3608
 20
0.62628
 10
-11.4024
 20
0.696575
 10
-11.4483
 20
0.764121
 10
-11.4983
 20
0.828651
 10
-11.5523
 20
0.889911
 10
-11.6101
 20
0.947659
 10
-11.6713
 20
1.00167
 10
-11.7359
 20
1.05172
 10
-11.8034
 20
1.09763
 10
-11.8737
 20
1.1392
 10
-11.9465
 20
1.17628
 10
-12.0214
 20
1.20871
 10
-12.0983
 20
1.23637
 10
-12.1767
 20
1.25916
 10
-12.2564
 20
1.27697
 10
-12.3371
 20
1.28975
 10
-12.4184
 20
1.29743
 10
-12.5
 20
1.3
 10
-12.5816
 20
1.29743
 10
-12.6629
 20
1.28975
 10
-12.7436
 20
1.27697
 10
-12.8233
 20
1.25916
 10
-12.9017
 20
1.23637
 10
-12.9786
 20
1.20871
 10
-13.0535
 20
1.17628
 10
-13.1263
 20
1.1392
 10
-13.1966
 20
1.09763
 10
-13.2641
 20
1.05172
 10
-13.3287
 20
1.00167
 10
-13.3899
 20
0.947659
 10
-13.4477
 20
0.889911
 10
-13.5017
 20
0.828651
 10
-13.5517
 20
0.764121
 10
-13.5976
 20
0.696575
 10
-13.6392
 20
0.62628
 10
-13.6763
 20
0.553513
 10
-13.7087
 20
0.478562
 10
-13.7364
 20
0.401722
 10
-13.7592
 20
0.323297
 10
-13.777
 20
0.243596
 10
-13.7897
 20
0.162933
 10
-13.7974
 20
0.0816277
 10
-13.8
 20
0
 10
-13.7974
 20
-0.0816277
 10
-13.7897
 20
-0.162933
 10
-13.777
 20
-0.243596
 10
-13.7592
 20
-0.323297
 10
-13.7364
 20
-0.401722
 10
-13.7087
 20
-0.478562
 10
-13.6763
 20
-0.553513
 10
-13.6392
 20
-0.62628
 10
-13.5976
 20
-0.696575
 10
-13.5517
 20
-0.764121
 10
-13.5017
 20
-0.828651
 10
-13.4477
 20
-0.889911
 10
-13.3899
 20
-0.947659
 10
-13.3287
 20
-1.00167
 10
-13.2641
 20
-1.05172
 10
-13.1966
 20
-1.09763
 10
-13.1263
 20
-1.1392
 10
-13.0535
 20
-1.17628
 10
-12.9786
 20
-1.20871
 10
-12.9017
 20
-1.23637
 10
-12.8233
 20
-1.25916
 10
-12.7436
 20
-1.27697
 10
-12.6629
 20
-1.28975
 10
-12.5816
 20
-1.29743
 10
-12.5
 20
-1.3
  0
LWPOLYLINE
100
AcDbEntity
  8
0
100
AcDbPolyline
 90
100
 70
1
 10
12.5816
 20
-1.29743
 10
12.6629
 20
-1.28975
 10
12.7436
 20
-1.27697
 10
12.8233
 20
-1.25916
 10
12.9017
 20
-1.23637
 10
12.9786
 20
-1.20871
 10
13.0535
 20
-1.17628
 10
13.1263
 20
-1.1392
 10
13.1966
 20
-1.09763
 10
13.2641
 20
-1.05172
 10
13.3287
 20
-1.00167
 10
13.3899
 20
-0.947659
 10
13.4477
 20
-0.889911
 10
13.5017
 20
-0.828651
 10
13.5517
 20
-0.764121
 10
13.5976
 20
-0.696575
 10
13.6392
 20
-0.62628
 10
13.6763
 20
-0.553513
 10
13.7087
 20
-0.478562
 10
13.7364
 20
-0.401722
 10
13.7592
 20
-0.323297
 10
13.777
 20
-0.243596
 10
13.7897
 20
-0.162933
 10
13.7974
 20
-0.0816277
 10
13.8
 20
0
 10
13.7974
 20
0.0816277
 10
13.7897
 20
0.162933
 10
13.777
 20
0.243596
 10
13.7592
 20
0.323297
 10
13.7364
 20
0.401722
 10
13.7087
 20
0.478562
 10
13.6763
 20
0.553513
 10
13.6392
 20
0.62628
 10
13.5976
 20
0.696575
 10
13.5517
 20
0.764121
 10
13.5017
 20
0.828651
 10
13.4477
 20
0.889911
 10
13.3899
 20
0.947659
 10
13.3287
 20
1.00167
 10
13.2641
 20
1.05172
 10
13.1966
 20
1.09763
 10
13.1263
 20
1.1392
 10
13.0535
 20
1.17628
 10
12.9786
 20
1.20871
 10
12.9017
 20
1.23637
 10
12.8233
 20
1.25916
 10
12.7436
 20
1.27697
 10
12.6629
 20
1.28975
 10
12.5816
 20
1.29743
 10
12.5
 20
1.3
 10
12.4184
 20
1.29743
 10
12.3371
 20
1.28975
 10
12.2564
 20
1.27697
 10
12.1767
 20
1.25916
 10
12.0983
 20
1.23637
 10
12.0214
 20
1.20871
 10
11.9465
 20
1.17628
 10
11.8737
 20
1.1392
 10
11.8034
 20
1.09763
 10
11.7359
 20
1.05172
 10
11.6713
 20
1.00167
 10
11.6101
 20
0.947659
 10
11.5523
 20
0.889911
 10
11.4983
 20
0.828651
 10
11.4483
 20
0.764121
 10
11.4024
 20
0.696575
 10
11.3608
 20
0.62628
 10
11.3237
 20
0.553513
 10
11.2913
 20
0.478562
 10
11.2636
 20
0.401722
 10
11.2408
 20
0.323297
 10
11.223
 20
0.243596
 10
11.2103
 20
0.162933
 10
11.2026
 20
0.0816277
 10
11.2
 20
0
 10
11.2026
 20
-0.0816277
 10
11.2103
 20
-0.162933
 10
11.223
 20
-0.243596
 10
11.2408
 20
-0.323297
 10
11.2636
 20
-0.401722
 10
11.2913
 20
-0.478562
 10
11.3237
 20
-0.553513
 10
11.3608
 20
-0.62628
 10
11.4024
 20
-0.696575
 10
11.4483
 20
-0.764121
 10
11.4983
 20
-0.828651
 10
11.5523
 20
-0.889911
 10
11.6101
 20
-0.947659
 10
11.6713
 20
-1.00167
 10
11.7359
 20
-1.05172
 10
11.8034
 20
-1.09763
 10
11.8737
 20
-1.1392
 10
11.9465
 20
-1.17628
 10
12.0214
 20
-1.20871
 10
12.0983
 20
-1.23637
 10
12.1767
 20
-1.25916
 10
12.2564
 20
-1.27697
 10
12.3371
 20
-1.28975
 10
12.4184
 20
-1.29743
 10
12.5
 20
-1.3
  0
ENDSEC
  0
EOF
